<?xml version="1.0" encoding="UTF-8"?>
<svg width="526px" height="595px" viewBox="0 0 526 595" version="1.1" xmlns="http://www.w3.org/2000/svg" xmlns:xlink="http://www.w3.org/1999/xlink">
    <!-- Generator: Sketch 48.2 (47327) - http://www.bohemiancoding.com/sketch -->
    <title>Path 3</title>
    <desc>Created with Sketch.</desc>
    <defs>
        <path d="M13.7322527,48.5402631 C13.7322527,48.5402631 32.3601754,18.4044689 42.486696,15.0323476 C49.2377098,12.7842668 71.6508047,7.77348427 109.725981,0 L158.073261,0 L214.840687,24.2701315 L249.272889,24.2701315 L290.550903,48.5402631 L290.550903,82.2106904 L290.550903,128.36406 L310.976613,160.196072 L321.38753,210.056744 L290.550903,241.005098 L290.550903,261.308924 L321.38753,296.381016 L342.412502,318.980323 L359.709859,359.780958 L375.087544,383.091254 L404.034971,383.091254 C427.673676,387.424904 440.650925,394.439999 442.96672,404.13654 C445.282514,413.833082 446.440411,426.685062 446.440411,442.692481 L446.440411,479.420163 C398.871833,491.581467 375.087544,498.342638 375.087544,499.703675 C375.087544,501.74523 293.994123,492.126559 262.040227,501.74523 C230.086332,511.363901 170.109296,520.982572 158.073261,511.363901 C146.037226,501.74523 96.2882808,501.74523 82.4747721,501.74523 C73.2657664,501.74523 59.9364077,501.064712 42.486696,499.703675 C14.162232,474.216397 0.416436657,455.212666 1.24930997,442.692481 C2.08218329,430.172296 1.66574663,410.30522 0,383.091254 C1.2402639e-15,348.665823 1.2402639e-15,319.762411 0,296.381016 C0,261.308924 13.7322527,203.04842 13.7322527,194.293093 C13.7322527,185.537766 13.7322527,48.5402631 13.7322527,48.5402631 Z" id="path-1"></path>
        <filter x="-13.8%" y="-11.5%" width="127.6%" height="123.9%" filterUnits="objectBoundingBox" id="filter-2">
            <feMorphology radius="0.5" operator="dilate" in="SourceAlpha" result="shadowSpreadOuter1"></feMorphology>
            <feOffset dx="0" dy="2" in="shadowSpreadOuter1" result="shadowOffsetOuter1"></feOffset>
            <feGaussianBlur stdDeviation="20" in="shadowOffsetOuter1" result="shadowBlurOuter1"></feGaussianBlur>
            <feComposite in="shadowBlurOuter1" in2="SourceAlpha" operator="out" result="shadowBlurOuter1"></feComposite>
            <feColorMatrix values="0 0 0 0 0   0 0 0 0 0   0 0 0 0 0  0 0 0 0.5 0" type="matrix" in="shadowBlurOuter1"></feColorMatrix>
        </filter>
    </defs>
    <g id="DDTD-Info" stroke="none" stroke-width="1" fill="none" fill-rule="evenodd" transform="translate(-36.000000, -290.000000)">
        <g id="Group-4" transform="translate(76.000000, 328.000000)">
            <g id="Path-3">
                <use fill="black" fill-opacity="1" filter="url(#filter-2)" xlink:href="#path-1"></use>
                <use stroke="#979797" stroke-width="1" fill="#FFFFFF" fill-rule="evenodd" xlink:href="#path-1"></use>
            </g>
        </g>
    </g>
</svg>