<?xml version="1.0" encoding="UTF-8"?>
<svg width="388px" height="837px" viewBox="0 0 388 837" version="1.1" xmlns="http://www.w3.org/2000/svg" xmlns:xlink="http://www.w3.org/1999/xlink">
    <!-- Generator: Sketch 49.3 (51167) - http://www.bohemiancoding.com/sketch -->
    <title>Group</title>
    <desc>Created with Sketch.</desc>
    <defs>
        <path d="M77.232892,12.9188156 C81.283675,12.6445167 124.235323,3.67662363 131.304941,3.82776789 C138.374558,3.97891216 196.600071,-4.96099125 206.647451,3.97891216 C213.345704,9.93884777 234.480968,16.6481771 270.053243,24.1069003 C292.626047,30.2996765 305.011141,38.3353099 307.208524,48.2138006 C310.504598,63.0315365 318.056818,80.2395911 307.208524,88.1998557 C296.360229,96.1601204 275.741795,105.917322 276.49137,110.99465 C277.240944,116.071978 276.49137,123.819521 276.49137,127.956395 C276.49137,132.09327 307.208524,176.574468 307.208524,182.446702 C307.208524,188.318937 310.792106,189.707225 319.632979,196.03849 C328.473851,202.369756 329.80871,193.015605 335.861781,212.882679 C341.914852,232.749753 356.064355,258.98168 341.914852,284.183587 C327.765349,309.385494 326.70773,323.374735 319.632979,330.652052 C312.558227,337.929368 307.208524,351.745073 307.208524,357.908401 C307.208524,364.071728 307.208524,381.039071 307.208524,387.41512 C307.208524,393.791169 319.632979,400.917341 319.632979,414.10048 C319.632979,427.283619 302.998585,379.538825 327.945042,442.510004 C344.576013,484.49079 349.232616,527.4027 341.914852,571.245733 L341.914852,585.184593 L327.945042,636.019447 C322.403666,662.583519 319.632979,678.380893 319.632979,683.411572 C319.632979,690.957589 314.827487,732.119211 307.208524,738.416888 C302.129215,742.61534 293.649439,753.318593 281.769196,770.526648 C250.567303,788.675156 227.436597,796.762307 212.377075,794.788101 C189.787794,791.826793 181.752335,803.201799 159.465327,791.826793 C137.178319,780.451788 102.25636,778.408541 82.7160811,770.526648 C63.1758022,762.644754 54.422209,767.201474 42.9988983,752.809181 C31.5755876,738.416888 31.5755876,749.870265 31.5755876,729.807263 C31.5755876,709.744261 24.0541718,635.09019 23.0838321,619.751846 C22.1134925,604.413502 8.37984922,578.858925 15.7318407,571.245733 C23.0838321,563.63254 42.9988983,546.474867 42.9988983,524.833247 C42.9988983,503.191628 42.9988983,499.441011 42.9988983,475.369887 C42.9988983,451.298763 40.0673431,416.92184 31.5755876,387.41512 C23.0838321,357.908401 5.94629898,266.365357 3.85673158,256.988815 C1.76716418,247.612272 6.81909126,222.080087 1.76716418,205.275084 C-3.28476291,188.470081 3.79512271,133.789445 6.81909126,110.99465 C9.8430598,88.1998557 73.182109,13.1931144 77.232892,12.9188156 Z" id="path-1"></path>
        <filter x="-8.9%" y="-3.6%" width="117.8%" height="107.8%" filterUnits="objectBoundingBox" id="filter-2">
            <feOffset dx="0" dy="2" in="SourceAlpha" result="shadowOffsetOuter1"></feOffset>
            <feGaussianBlur stdDeviation="10" in="shadowOffsetOuter1" result="shadowBlurOuter1"></feGaussianBlur>
            <feColorMatrix values="0 0 0 0 0.430017184   0 0 0 0 0   0 0 0 0 0.843137255  0 0 0 1 0" type="matrix" in="shadowBlurOuter1"></feColorMatrix>
        </filter>
    </defs>
    <g id="Playground" stroke="none" stroke-width="1" fill="none" fill-rule="evenodd">
        <g id="Home-1280-02" transform="translate(-658.000000, -679.000000)">
            <g id="Group" transform="translate(678.000000, 697.000000)">
                <g id="Path-5">
                    <use fill="black" fill-opacity="1" filter="url(#filter-2)" xlink:href="#path-1"></use>
                    <use fill="#FFFFFF" fill-rule="evenodd" xlink:href="#path-1"></use>
                </g>
            </g>
        </g>
    </g>
</svg>