<?xml version="1.0" encoding="UTF-8"?>
<svg width="302px" height="382px" viewBox="0 0 302 382" version="1.1" xmlns="http://www.w3.org/2000/svg" xmlns:xlink="http://www.w3.org/1999/xlink">
    <!-- Generator: Sketch 49.3 (51167) - http://www.bohemiancoding.com/sketch -->
    <title>Group 3</title>
    <desc>Created with Sketch.</desc>
    <defs>
        <path d="M138.068634,75.6108327 C109.642165,75.0558042 91.8934272,77.3319657 64.3828765,66.6310212 C55.1045196,63.0219628 47.7340629,49.7598547 38.0686224,50.7205547 C-22.8336471,56.7739579 28.6747732,70.6462809 -3.09802812,87.8253075 C-11.2895163,92.2543092 -20.8209455,90.1416153 -29.4999686,92.5995203 C-31.8390061,93.2619372 -32.6121774,97.119306 -30.213986,106.369637 C-29.7561884,108.13546 -18.171955,130.491669 -20.1843385,141.527155 C-23.1662885,157.87954 -36.3552711,168.07692 -39.2749081,184.45752 C-42.4759362,202.416862 -34.4617132,204.69816 -27.2994589,219.888617 C-25.3552242,224.012152 -31.6955814,248.969367 -32.0136438,256.682241 C-33.2707332,287.166111 -26.2566509,306.645624 -10.5096119,329.888625 C-1.42048617,343.304389 25.644948,326.84902 33.613321,320.52795 C40.3028881,315.221318 38.8143129,313.464304 45.0417745,312.272316 C50.6340756,311.201904 58.1928709,322.532874 61.2846257,325.393355 C62.5231373,326.539222 64.1497831,329.162836 65.3850062,328.011126 C71.4967255,322.312616 75.5797122,306.317587 84.9390608,304.735497 C96.911296,302.711729 107.54528,340.279345 124.473075,341.931443 C137.617584,343.214305 142.751898,326.067 155.856435,326.160448 C178.231791,326.320006 200.589634,328.006488 222.928137,329.663325 C235.82057,330.619552 248.60901,334.10236 261.522654,333.997667 C270.11222,333.92803 298.997707,330.383666 307.140431,318.881114 C314.849913,307.990568 303.313076,285.826072 310.100889,270.200237 C310.767603,268.665433 310.699087,273.868976 311.712647,275.049549 C313.395623,277.009843 315.508361,278.640669 317.750478,279.110312 C321.143354,279.820999 324.715051,279.535622 328.051536,278.471963 C330.507507,277.689008 332.61278,275.592132 334.678118,273.713843 C335.730476,272.756792 336.675183,271.509444 337.300357,270.060765 C346.973498,247.64578 340.879142,209.997865 326.640203,192.697061 C320.566551,185.317362 311.977723,181.470216 306.722877,173.117424 C302.53826,166.465804 311.565664,130.032526 310.100889,120.550419 C308.315834,108.995004 302.155952,101.386106 295.574185,90.8883136 C289.663139,81.4603111 279.338569,73.8914882 271.907223,68.3261349 C248.455134,50.7628072 206.894531,32.071337 179.456588,43.5109569 C173.762001,45.8851843 169.469495,52.3753552 163.78161,54.7759534 C144.747224,62.8095046 157.346137,46.6384916 147.476126,62.1572083 L138.068634,75.6108327 Z" id="path-1"></path>
        <filter x="-48.4%" y="-61.3%" width="196.9%" height="222.5%" filterUnits="objectBoundingBox" id="filter-2">
            <feGaussianBlur stdDeviation="184.5" in="SourceAlpha" result="shadowBlurInner1"></feGaussianBlur>
            <feOffset dx="0" dy="1" in="shadowBlurInner1" result="shadowOffsetInner1"></feOffset>
            <feComposite in="shadowOffsetInner1" in2="SourceAlpha" operator="arithmetic" k2="-1" k3="1" result="shadowInnerInner1"></feComposite>
            <feColorMatrix values="0 0 0 0 0.0372289541   0 0 0 0 0.0372289541   0 0 0 0 0.0372289541  0 0 0 0.4903476 0" type="matrix" in="shadowInnerInner1"></feColorMatrix>
        </filter>
    </defs>
    <g id="Playground" stroke="none" stroke-width="1" fill="none" fill-rule="evenodd" fill-opacity="1">
        <g id="Home-1280-02" transform="translate(-724.000000, -173.000000)" fill="black">
            <g id="Group-3" transform="translate(724.000000, 173.000000)">
                <g id="Path-16" transform="translate(151.000000, 191.000000) rotate(-270.000000) translate(-151.000000, -191.000000) ">
                    <use filter="url(#filter-2)" xlink:href="#path-1"></use>
                </g>
            </g>
        </g>
    </g>
</svg>