<?xml version="1.0" encoding="UTF-8"?>
<svg width="525px" height="666px" viewBox="0 0 525 666" version="1.1" xmlns="http://www.w3.org/2000/svg" xmlns:xlink="http://www.w3.org/1999/xlink">
    <!-- Generator: Sketch 48.2 (47327) - http://www.bohemiancoding.com/sketch -->
    <title>Path 6</title>
    <desc>Created with Sketch.</desc>
    <defs>
        <path d="M39.026477,180.624895 C39.026477,155.20641 39.026477,140.206509 39.026477,135.62519 C39.026477,128.753211 28.4281441,120.934089 22.766021,112.38214 C17.103898,103.830191 6.50556507,65.225435 22.766021,56.1134958 C39.026477,47.0015566 56.6972786,30.2848124 63.5346897,22.7007477 C70.3721008,15.116683 97.120487,31.0280115 101.579668,25.0616963 C106.038849,19.095381 121.130023,-12.2684232 155.642919,5.26846269 C178.651516,16.95972 197.154166,22.7704816 211.15087,22.7007477 C231.181465,31.9740009 245.174307,36.3502205 253.129394,35.8294066 C265.062024,35.0481857 298.295023,47.3956238 317.383083,35.0481857 C330.108457,26.8165604 354.606962,22.7007477 390.878599,22.7007477 C420.870785,31.453187 437.493846,42.5907697 440.747781,56.1134958 C445.628683,76.397585 458.01667,117.760811 457.864574,126.693 C457.712477,135.62519 457.560381,209.087607 457.712477,214.466278 C457.864574,219.844949 466.886638,418.489371 466.126157,424.386552 C465.61917,428.318006 465.365677,454.946346 465.365677,504.271573 C384.54273,528.3765 341.499533,540.645586 336.236086,541.078829 C330.97264,541.512073 309.978769,544.254411 273.254473,549.305846 L253.129394,578.591259 C160.014317,597.488047 109.610591,606.936441 101.918215,606.936441 C90.3796517,606.936441 81.0174969,610.36481 53.1033538,600.36848 C34.4939251,593.70426 24.3814808,586.445186 22.766021,578.591259 L9.93464082,504.271573 C3.31154694,484.202917 6.57093599e-16,466.827089 0,452.144091 C0,430.119593 5.61063298,420.872092 9.93464082,408.409548 C14.2586487,395.947004 20.2794772,394.209137 22.766021,386.52845 C24.4237169,381.407991 29.8438689,312.773473 39.026477,180.624895 Z" id="path-1"></path>
        <filter x="-9.9%" y="-7.2%" width="119.7%" height="115.1%" filterUnits="objectBoundingBox" id="filter-2">
            <feOffset dx="0" dy="2" in="SourceAlpha" result="shadowOffsetOuter1"></feOffset>
            <feGaussianBlur stdDeviation="15" in="shadowOffsetOuter1" result="shadowBlurOuter1"></feGaussianBlur>
            <feColorMatrix values="0 0 0 0 0   0 0 0 0 0.0269208227   0 0 0 0 0.843137255  0 0 0 1 0" type="matrix" in="shadowBlurOuter1"></feColorMatrix>
        </filter>
    </defs>
    <g id="DDTD-Homepage-03" stroke="none" stroke-width="1" fill="none" fill-rule="evenodd" transform="translate(-640.000000, -101.000000)">
        <g id="Group-5" transform="translate(670.000000, 128.000000)">
            <g id="Path-6">
                <use fill="black" fill-opacity="1" filter="url(#filter-2)" xlink:href="#path-1"></use>
                <use fill="#FFFFFF" fill-rule="evenodd" xlink:href="#path-1"></use>
            </g>
        </g>
    </g>
</svg>