<?xml version="1.0" encoding="UTF-8"?>
<svg width="538px" height="333px" viewBox="0 0 538 333" version="1.1" xmlns="http://www.w3.org/2000/svg" xmlns:xlink="http://www.w3.org/1999/xlink">
    <!-- Generator: Sketch 48.2 (47327) - http://www.bohemiancoding.com/sketch -->
    <title>Path 16</title>
    <desc>Created with Sketch.</desc>
    <defs>
        <path d="M315.787762,643.266249 C275.752578,642.654248 250.755664,645.164055 212.010439,633.364669 C198.943015,629.385144 188.562633,614.761694 174.950049,615.821009 C89.1766959,622.495788 161.719969,637.792091 116.971887,656.734528 C105.435184,661.618162 92.0113385,659.288602 79.7880023,661.998809 C76.4937558,662.729222 75.4048391,666.982546 78.7823967,677.182415 C79.4271483,679.129497 95.7421158,703.780548 92.9079212,715.948817 C88.7082115,733.979757 70.1331523,745.223889 66.0212027,763.285941 C61.5129485,783.088792 72.7999955,785.604263 82.8871495,802.354004 C85.6253649,806.900817 76.6957519,834.419865 76.2478001,842.924458 C74.4773443,876.537466 84.3558162,898.016532 106.533583,923.645405 C119.334499,938.438284 157.452832,920.293787 168.675306,913.323865 C178.096738,907.472513 176.000263,905.535143 184.770876,904.220799 C192.646944,903.04051 203.292577,915.534592 207.646934,918.6887 C209.391225,919.952189 211.682155,922.845114 213.421815,921.575182 C222.02942,915.291725 227.779804,897.654823 240.961295,895.910333 C257.822715,893.678827 272.799374,935.102721 296.64009,936.924406 C315.152514,938.338952 322.383563,919.431493 340.839691,919.534534 C372.352627,919.71047 403.840898,921.570068 435.301931,923.396978 C453.459336,924.45136 471.470282,928.291675 489.65756,928.176235 C501.754907,928.09945 542.436561,924.191261 553.904586,911.507984 C564.762443,899.499533 548.514227,875.059874 558.074027,857.830062 C559.013011,856.137712 558.916515,861.875394 560.34399,863.177152 C562.714254,865.338667 565.689785,867.136897 568.847532,867.654748 C573.62598,868.438386 578.656276,868.123716 583.355305,866.950873 C586.814238,866.087548 589.779256,863.775431 592.68803,861.704336 C594.170147,860.649045 595.50065,859.273659 596.381132,857.676274 C610.00456,832.960413 601.421409,791.447977 581.367616,772.371262 C572.813624,764.234045 560.717316,759.991993 553.316512,750.781795 C547.422994,743.447393 536.813989,709.203657 534.751033,698.748222 C532.237003,686.006655 546.884561,671.687329 537.614951,660.111948 C529.289971,649.716171 514.749084,641.370416 504.282947,635.233785 C471.253565,615.867599 412.72057,595.257468 374.077603,607.871353 C366.057477,610.489293 360.012011,617.645673 352.001325,620.29269 C325.193735,629.150878 342.937754,611.319926 329.037057,628.431624 L315.787762,643.266249 Z" id="path-1"></path>
        <filter x="-40.1%" y="-64.7%" width="180.1%" height="229.4%" filterUnits="objectBoundingBox" id="filter-2">
            <feGaussianBlur stdDeviation="215" in="SourceAlpha" result="shadowBlurInner1"></feGaussianBlur>
            <feOffset dx="0" dy="1" in="shadowBlurInner1" result="shadowOffsetInner1"></feOffset>
            <feComposite in="shadowOffsetInner1" in2="SourceAlpha" operator="arithmetic" k2="-1" k3="1" result="shadowInnerInner1"></feComposite>
            <feColorMatrix values="0 0 0 0 0.0372289541   0 0 0 0 0.0372289541   0 0 0 0 0.0372289541  0 0 0 0.4903476 0" type="matrix" in="shadowInnerInner1"></feColorMatrix>
        </filter>
    </defs>
    <g id="DDTD-Homepage-02" stroke="none" stroke-width="1" fill="none" fill-rule="evenodd" transform="translate(-65.000000, -604.000000)" fill-opacity="1">
        <g id="Path-16" fill="black">
            <use filter="url(#filter-2)" xlink:href="#path-1"></use>
        </g>
    </g>
</svg>