<?xml version="1.0" encoding="UTF-8"?>
<svg width="450px" height="775px" viewBox="0 0 450 775" version="1.1" xmlns="http://www.w3.org/2000/svg" xmlns:xlink="http://www.w3.org/1999/xlink">
    <!-- Generator: Sketch 49.2 (51160) - http://www.bohemiancoding.com/sketch -->
    <title>Path 6</title>
    <desc>Created with Sketch.</desc>
    <defs>
        <path d="M32.6496169,182.259 C32.6496169,156.610556 32.6496169,141.47495 32.6496169,136.852185 C32.6496169,129.918036 23.7830336,122.028174 19.0460918,113.398856 C14.3091501,104.769538 5.44256679,65.8155265 19.0460918,56.621152 C32.6496169,47.4267776 47.4330395,30.5587977 53.1532293,22.9061203 C58.873419,15.2534429 81.2511643,31.3087205 84.9817229,25.2884283 C88.7122814,19.2681361 101.337583,-12.3794151 130.21113,5.31612623 C149.460162,17.1131538 164.93951,22.9764851 176.649176,22.9061203 C193.406807,32.2632682 205.113241,36.6790793 211.768481,36.1535536 C221.75134,35.3652651 249.554122,47.8244098 265.523226,35.3652651 C276.169296,27.0591685 296.664787,22.9061203 327.009699,22.9061203 C352.101214,31.7377425 366.008094,42.9760864 368.730342,56.621152 C372.813713,77.0887504 383.177523,118.826188 383.05028,127.839186 C382.923036,136.852185 382.795792,210.979213 382.923036,216.406545 C383.05028,221.833876 390.598154,422.275425 389.961934,428.225958 C389.537788,432.192979 389.325715,493.593449 389.325715,612.427367 C321.709101,636.750371 285.699089,649.130455 281.295681,649.567617 C276.892272,650.00478 259.328764,652.771929 228.605156,657.869063 L211.768481,687.41942 C133.868249,706.487167 91.7004062,716.02104 85.2649517,716.02104 C75.61177,716.02104 67.7793755,719.480426 44.426356,709.393659 C28.8576763,702.669148 20.3975882,695.344402 19.0460918,687.41942 L8.31133738,612.427367 C2.77044579,523.114702 5.49725621e-16,471.050452 0,456.234617 C0,434.010865 4.69386508,424.679703 8.31133738,412.10441 C11.9288097,399.529118 16.965845,397.775529 19.0460918,390.025355 C20.4329231,384.858572 24.9674314,315.60312 32.6496169,182.259 Z" id="path-1"></path>
        <filter x="-11.8%" y="-6.1%" width="123.6%" height="112.8%" filterUnits="objectBoundingBox" id="filter-2">
            <feOffset dx="0" dy="2" in="SourceAlpha" result="shadowOffsetOuter1"></feOffset>
            <feGaussianBlur stdDeviation="15" in="shadowOffsetOuter1" result="shadowBlurOuter1"></feGaussianBlur>
            <feColorMatrix values="0 0 0 0 0   0 0 0 0 0.0269208227   0 0 0 0 0.843137255  0 0 0 1 0" type="matrix" in="shadowBlurOuter1"></feColorMatrix>
        </filter>
    </defs>
    <g id="Playground" stroke="none" stroke-width="1" fill="none" fill-rule="evenodd">
        <g id="Home-1280-02" transform="translate(-454.000000, -98.000000)">
            <g id="Group-5" transform="translate(484.000000, 125.000000)">
                <g id="Path-6">
                    <use fill="black" fill-opacity="1" filter="url(#filter-2)" xlink:href="#path-1"></use>
                    <use fill="#FFFFFF" fill-rule="evenodd" xlink:href="#path-1"></use>
                </g>
            </g>
        </g>
    </g>
</svg>