<?xml version="1.0" encoding="UTF-8"?>
<svg width="262px" height="152px" viewBox="0 0 262 152" version="1.1" xmlns="http://www.w3.org/2000/svg" xmlns:xlink="http://www.w3.org/1999/xlink">
    <!-- Generator: Sketch 48.2 (47327) - http://www.bohemiancoding.com/sketch -->
    <title>Path 18</title>
    <desc>Created with Sketch.</desc>
    <defs></defs>
    <g id="DDTD-Homepage-02" stroke="none" stroke-width="1" fill="none" fill-rule="evenodd" transform="translate(-950.000000, -741.000000)">
        <path d="M950.962434,892.782475 C950.962434,889.629517 950.174429,886.376499 950.962434,883.323599 C954.319656,870.317018 957.42859,857.040834 963.305748,844.96188 C974.501507,821.95194 986.713348,838.137575 1005.40294,834.463567 C1022.24034,831.153667 1038.20831,821.160762 1055.34789,821.990324 C1121.8339,825.208274 1061.51373,842.013591 1095.40519,839.660752 C1110.37804,838.621295 1116.03238,803.035709 1128.90104,798.200212 C1132.37797,796.893732 1134.64758,802.954436 1137.8402,804.852608 C1143.60815,808.281941 1154.67772,814.260536 1162.41639,814.857188 C1171.13064,815.529058 1172.37802,810.709435 1176.17593,802.988118 C1201.67454,751.148387 1175.02381,793.309702 1211.30241,741.804262" id="Path-18" stroke="#00BB20"></path>
    </g>
</svg>