<?xml version="1.0" encoding="UTF-8"?>
<svg width="349px" height="514px" viewBox="0 0 349 514" version="1.1" xmlns="http://www.w3.org/2000/svg" xmlns:xlink="http://www.w3.org/1999/xlink">
    <!-- Generator: Sketch 49.3 (51167) - http://www.bohemiancoding.com/sketch -->
    <title>Group 5</title>
    <desc>Created with Sketch.</desc>
    <defs>
        <path d="M24.1942033,115.9794 C24.1942033,99.6581691 24.1942033,90.0267192 24.1942033,87.0850504 C24.1942033,82.6725472 17.6238377,77.6518821 14.1136424,72.1606683 C10.6034471,66.6694545 4.03308154,41.8813077 14.1136424,36.0305237 C24.1942033,30.1797398 35.1490985,19.445904 39.3879058,14.5761695 C43.6267131,9.70643508 60.2091961,19.9231128 62.9736357,16.0921366 C65.7380752,12.2611605 75.0937472,-7.87756504 96.4897862,3.38288441 C110.753812,10.8898507 122.224406,14.6209457 130.901569,14.5761695 C143.319403,20.5305334 151.994171,23.3405077 156.925874,23.0060927 C164.323429,22.5044701 184.926003,30.4327706 196.759519,22.5044701 C204.648529,17.2189364 219.836214,14.5761695 242.322572,14.5761695 C260.916027,20.1961183 271.221383,27.3475697 273.238638,36.0305237 C276.264521,49.0549547 283.94437,75.6143177 283.850079,81.3496841 C283.755788,87.0850504 283.661497,134.255331 283.755788,137.708981 C283.850079,141.16263 289.443247,268.712384 288.971792,272.498968 C288.657489,275.023358 288.500338,314.095172 288.500338,389.714409 C238.394693,405.192203 211.710351,413.070194 208.447312,413.34838 C205.184273,413.626566 192.169264,415.387424 169.402283,418.630954 L156.925874,437.435143 C99.1998051,449.568787 67.9523523,455.635609 63.1835155,455.635609 C56.0302603,455.635609 50.2262552,457.836967 32.9210689,451.418315 C21.3842781,447.139214 15.1151359,442.478156 14.1136424,437.435143 L6.15891411,389.714409 C2.05297137,332.880841 4.07360781e-16,299.750074 0,290.322108 C0,276.180159 3.47827438,270.242331 6.15891411,262.24012 C8.83955383,254.23791 12.5721262,253.122025 14.1136424,248.190249 C15.1413199,244.902398 18.5015069,200.832115 24.1942033,115.9794 Z" id="path-1"></path>
        <filter x="-15.9%" y="-9.6%" width="131.8%" height="120.2%" filterUnits="objectBoundingBox" id="filter-2">
            <feOffset dx="0" dy="2" in="SourceAlpha" result="shadowOffsetOuter1"></feOffset>
            <feGaussianBlur stdDeviation="15" in="shadowOffsetOuter1" result="shadowBlurOuter1"></feGaussianBlur>
            <feColorMatrix values="0 0 0 0 0   0 0 0 0 0.0269208227   0 0 0 0 0.843137255  0 0 0 1 0" type="matrix" in="shadowBlurOuter1"></feColorMatrix>
        </filter>
    </defs>
    <g id="Playground" stroke="none" stroke-width="1" fill="none" fill-rule="evenodd">
        <g id="Home-1280-02" transform="translate(-80.000000, -79.000000)">
            <g id="Group-5" transform="translate(110.000000, 106.000000)">
                <g id="Path-6">
                    <use fill="black" fill-opacity="1" filter="url(#filter-2)" xlink:href="#path-1"></use>
                    <use fill="#FFFFFF" fill-rule="evenodd" xlink:href="#path-1"></use>
                </g>
            </g>
        </g>
    </g>
</svg>