<?xml version="1.0" encoding="UTF-8"?>
<svg width="317px" height="837px" viewBox="0 0 317 837" version="1.1" xmlns="http://www.w3.org/2000/svg" xmlns:xlink="http://www.w3.org/1999/xlink">
    <!-- Generator: Sketch 49.3 (51167) - http://www.bohemiancoding.com/sketch -->
    <title>Path 5</title>
    <desc>Created with Sketch.</desc>
    <defs>
        <path d="M348.488364,709.918816 C351.713363,709.644517 385.908982,700.676624 391.537403,700.827768 C397.165823,700.978912 443.521611,692.039009 451.520754,700.978912 C456.853515,706.938848 473.680191,713.648177 502.00078,721.1069 C519.971941,727.299676 529.832237,735.33531 531.581666,745.213801 C534.20581,760.031537 540.218451,777.239591 531.581666,785.199856 C522.944881,793.16012 506.529676,802.917322 507.126444,807.99465 C507.723212,813.071978 507.126444,820.819521 507.126444,824.956395 C507.126444,829.09327 531.581666,873.574468 531.581666,879.446702 C531.581666,885.318937 534.434707,886.707225 541.473299,893.03849 C548.51189,899.369756 549.574628,890.015605 554.393733,909.882679 C559.212838,929.749753 570.477855,955.98168 559.212838,981.183587 C547.947822,1006.38549 547.105807,1020.37474 541.473299,1027.65205 C535.840791,1034.92937 531.581666,1048.74507 531.581666,1054.9084 C531.581666,1061.07173 531.581666,1078.03907 531.581666,1084.41512 C531.581666,1090.79117 541.473299,1097.91734 541.473299,1111.10048 C541.473299,1124.28362 528.229956,1076.53882 548.090883,1139.51 C561.331501,1181.49079 565.038819,1224.4027 559.212838,1268.24573 L559.212838,1282.18459 L548.090883,1333.01945 C543.67916,1359.58352 541.473299,1375.38089 541.473299,1380.41157 C541.473299,1387.95759 537.647444,1429.11921 531.581666,1435.41689 C527.537814,1439.61534 520.786707,1450.31859 511.328344,1467.52665 C486.487201,1485.67516 468.07187,1493.76231 456.082349,1491.7881 C438.098069,1488.82679 431.700701,1500.2018 413.957074,1488.82679 C396.213447,1477.45179 368.410602,1475.40854 352.853762,1467.52665 C337.296921,1459.64475 330.327817,1464.20147 321.233237,1449.80918 C312.138657,1435.41689 312.138657,1446.87026 312.138657,1426.80726 C312.138657,1406.74426 306.150541,1332.09019 305.378013,1316.75185 C304.605484,1301.4135 293.671551,1275.85893 299.524782,1268.24573 C305.378013,1260.63254 321.233237,1243.47487 321.233237,1221.83325 C321.233237,1200.19163 321.233237,1196.44101 321.233237,1172.36989 C321.233237,1148.29876 318.899302,1113.92184 312.138657,1084.41512 C305.378013,1054.9084 291.734099,963.365357 290.070507,953.988815 C288.406914,944.612272 292.428966,919.080087 288.406914,902.275084 C284.384862,885.470081 290.021457,830.789445 292.428966,807.99465 C294.836475,785.199856 345.263364,710.193114 348.488364,709.918816 Z" id="path-1"></path>
        <filter x="-11.2%" y="-3.6%" width="122.4%" height="107.8%" filterUnits="objectBoundingBox" id="filter-2">
            <feOffset dx="0" dy="2" in="SourceAlpha" result="shadowOffsetOuter1"></feOffset>
            <feGaussianBlur stdDeviation="10" in="shadowOffsetOuter1" result="shadowBlurOuter1"></feGaussianBlur>
            <feColorMatrix values="0 0 0 0 0.430017184   0 0 0 0 0   0 0 0 0 0.843137255  0 0 0 1 0" type="matrix" in="shadowBlurOuter1"></feColorMatrix>
        </filter>
    </defs>
    <g id="Playground" stroke="none" stroke-width="1" fill="none" fill-rule="evenodd">
        <g id="Home-1280-02" transform="translate(-267.000000, -679.000000)">
            <g id="Path-5">
                <use fill="black" fill-opacity="1" filter="url(#filter-2)" xlink:href="#path-1"></use>
                <use fill="#FFFFFF" fill-rule="evenodd" xlink:href="#path-1"></use>
            </g>
        </g>
    </g>
</svg>