<?xml version="1.0" encoding="UTF-8"?>
<svg width="316px" height="727px" viewBox="0 0 316 727" version="1.1" xmlns="http://www.w3.org/2000/svg" xmlns:xlink="http://www.w3.org/1999/xlink">
    <!-- Generator: Sketch 48.2 (47327) - http://www.bohemiancoding.com/sketch -->
    <title>Path 5</title>
    <desc>Created with Sketch.</desc>
    <defs>
        <path d="M233.723096,312.384356 C236.948095,312.147653 271.143714,304.408892 276.772135,304.53932 C282.400556,304.669749 328.756343,296.955142 336.755486,304.669749 C342.088248,309.812821 358.914923,315.602575 387.235512,322.039011 C405.206674,327.38301 415.066969,334.317286 416.816398,342.841839 C419.440542,355.628668 425.453183,370.4782 416.816398,377.347437 C408.179613,384.216674 391.764408,392.636562 392.361176,397.017995 C392.957944,401.399429 392.361176,408.0851 392.361176,411.654978 C392.361176,415.224855 416.816398,453.609495 416.816398,458.676886 C416.816398,463.744277 419.66944,464.942288 426.708031,470.405795 C433.746623,475.869302 434.80936,467.797224 439.628465,484.941332 C444.447571,502.085441 455.712587,524.722041 444.447571,546.469795 C433.182554,568.217548 432.340539,580.289436 426.708031,586.569329 C421.075523,592.849222 416.816398,604.771358 416.816398,610.089945 C416.816398,615.408531 416.816398,630.050344 416.816398,635.552497 C416.816398,641.054649 426.708031,647.204114 426.708031,658.580382 C426.708031,669.956651 413.464688,628.75572 433.325615,683.09612 C446.566233,719.323053 450.273551,756.35349 444.447571,794.187432 L444.447571,806.215843 L433.325615,850.083313 C428.913892,873.006534 426.708031,886.638733 426.708031,890.979911 C426.708031,897.491677 422.882176,933.01172 416.816398,938.446243 C412.772546,942.069258 406.021439,951.305532 396.563076,966.155064 C371.721933,981.816152 353.306602,988.794885 341.317082,987.091263 C323.332802,984.535829 316.935434,994.351785 299.191807,984.535829 C281.44818,974.719873 253.645335,972.956672 238.088494,966.155064 C222.531654,959.353457 215.562549,963.285636 206.467969,950.86594 C197.37339,938.446243 197.37339,948.329829 197.37339,931.016646 C197.37339,913.703463 191.385273,849.281419 190.612745,836.045336 C189.840217,822.809254 178.906284,800.757167 184.759514,794.187432 C190.612745,787.617698 206.467969,772.811642 206.467969,754.136205 C206.467969,735.460768 206.467969,732.224208 206.467969,711.452253 C206.467969,690.680298 204.134035,661.015049 197.37339,635.552497 C190.612745,610.089945 176.968832,531.093717 175.305239,523.002317 C173.641646,514.910916 177.663699,492.878151 173.641646,478.376429 C169.619594,463.874706 175.25619,416.688554 177.663699,397.017995 C180.071208,377.347437 230.498097,312.62106 233.723096,312.384356 Z" id="path-1"></path>
        <filter x="-11.2%" y="-4.2%" width="122.4%" height="109.0%" filterUnits="objectBoundingBox" id="filter-2">
            <feOffset dx="0" dy="2" in="SourceAlpha" result="shadowOffsetOuter1"></feOffset>
            <feGaussianBlur stdDeviation="10" in="shadowOffsetOuter1" result="shadowBlurOuter1"></feGaussianBlur>
            <feColorMatrix values="0 0 0 0 0.430017184   0 0 0 0 0   0 0 0 0 0.843137255  0 0 0 1 0" type="matrix" in="shadowBlurOuter1"></feColorMatrix>
        </filter>
    </defs>
    <g id="DDTD-DD-Catalogue-01" stroke="none" stroke-width="1" fill="none" fill-rule="evenodd" transform="translate(-153.000000, -284.000000)">
        <g id="Path-5">
            <use fill="black" fill-opacity="1" filter="url(#filter-2)" xlink:href="#path-1"></use>
            <use fill="#FFFFFF" fill-rule="evenodd" xlink:href="#path-1"></use>
        </g>
    </g>
</svg>