<?xml version="1.0" encoding="UTF-8"?>
<svg width="445px" height="313px" viewBox="0 0 445 313" version="1.1" xmlns="http://www.w3.org/2000/svg" xmlns:xlink="http://www.w3.org/1999/xlink">
    <!-- Generator: Sketch 48.2 (47327) - http://www.bohemiancoding.com/sketch -->
    <title>Path 16</title>
    <desc>Created with Sketch.</desc>
    <defs>
        <path d="M1295.43597,525.907916 C1262.32137,525.332671 1241.64548,527.691739 1209.59785,516.601025 C1198.7893,512.860511 1190.20329,499.115346 1178.94381,500.111038 C1107.99745,506.38493 1168.00072,520.762536 1130.9879,538.567289 C1121.44546,543.157612 1110.34209,540.967965 1100.23171,543.515397 C1097.50692,544.201942 1096.60623,548.199811 1099.39994,557.787075 C1099.93324,559.617215 1113.42796,582.787723 1111.08369,594.225164 C1107.60995,611.173165 1092.24582,621.741974 1088.84468,638.719218 C1085.11573,657.332708 1094.45167,659.6971 1102.79513,675.440851 C1105.06001,679.714582 1097.674,705.580834 1097.30348,713.57464 C1095.83907,745.16885 1104.00992,765.357882 1122.35399,789.447482 C1132.9421,803.3519 1164.47121,786.297163 1173.75374,779.745855 C1181.54656,774.245935 1179.81248,772.424924 1187.06699,771.18952 C1193.58158,770.080119 1202.38698,781.823806 1205.98863,784.788477 C1207.4314,785.976081 1209.32632,788.695258 1210.76526,787.501597 C1217.88493,781.595526 1222.64129,765.017897 1233.54419,763.378181 C1247.49091,761.2807 1259.87866,800.216672 1279.59822,801.928946 C1294.91054,803.258534 1300.89161,785.486659 1316.15737,785.583511 C1342.2229,785.74888 1368.26803,787.496791 1394.29063,789.213976 C1409.3093,790.205032 1424.20683,793.814697 1439.25021,793.706191 C1449.25638,793.634018 1482.90571,789.960554 1492.39134,778.039036 C1501.37228,766.751814 1487.93277,743.780001 1495.84004,727.585013 C1496.61671,725.994306 1496.53689,731.387382 1497.71761,732.610957 C1499.67815,734.642651 1502.13932,736.332879 1504.75121,736.819628 C1508.70365,737.556201 1512.86439,737.260429 1516.75113,736.158028 C1519.61215,735.346555 1522.06463,733.173303 1524.47058,731.226599 C1525.6965,730.234688 1526.79701,728.941908 1527.52529,727.440462 C1538.79373,704.209037 1531.69429,665.18984 1515.10704,647.258874 C1508.03171,639.610378 1498.0264,635.623105 1491.90492,626.966072 C1487.03017,620.072174 1497.54639,582.311856 1495.84004,572.484375 C1493.76059,560.508068 1486.58481,552.622024 1478.91757,541.741861 C1472.03167,531.970455 1460.00435,524.125946 1451.34742,518.357882 C1424.02758,500.15483 1375.61274,480.782545 1343.64969,492.638839 C1337.01594,495.099545 1332.01551,501.826113 1325.38957,504.31415 C1303.21601,512.640314 1317.89275,495.880291 1306.39496,511.964259 L1295.43597,525.907916 Z" id="path-1"></path>
        <filter x="-48.4%" y="-68.8%" width="196.9%" height="237.7%" filterUnits="objectBoundingBox" id="filter-2">
            <feGaussianBlur stdDeviation="215" in="SourceAlpha" result="shadowBlurInner1"></feGaussianBlur>
            <feOffset dx="0" dy="1" in="shadowBlurInner1" result="shadowOffsetInner1"></feOffset>
            <feComposite in="shadowOffsetInner1" in2="SourceAlpha" operator="arithmetic" k2="-1" k3="1" result="shadowInnerInner1"></feComposite>
            <feColorMatrix values="0 0 0 0 0.0372289541   0 0 0 0 0.0372289541   0 0 0 0 0.0372289541  0 0 0 0.4903476 0" type="matrix" in="shadowInnerInner1"></feColorMatrix>
        </filter>
    </defs>
    <g id="DDTD-DD-Catalogue-01" stroke="none" stroke-width="1" fill="none" fill-rule="evenodd" transform="translate(-1088.000000, -489.000000)" fill-opacity="1">
        <g id="Path-16" fill="black">
            <use filter="url(#filter-2)" xlink:href="#path-1"></use>
        </g>
    </g>
</svg>