<?xml version="1.0" encoding="UTF-8"?>
<svg width="446px" height="71px" viewBox="0 0 446 71" version="1.1" xmlns="http://www.w3.org/2000/svg" xmlns:xlink="http://www.w3.org/1999/xlink">
    <!-- Generator: Sketch 48.2 (47327) - http://www.bohemiancoding.com/sketch -->
    <title>DriveDrive</title>
    <desc>Created with Sketch.</desc>
    <defs></defs>
    <g id="DDTD-Homepage-02" stroke="none" stroke-width="1" fill="none" fill-rule="evenodd" transform="translate(-79.000000, -53.000000)">
        <g id="DriveDrive" transform="translate(80.000000, 54.000000)" fill="#FF4819" fill-rule="nonzero" stroke="#F867FF">
            <path d="M3.51790568,12.0228261 C3.28324893,12.0563578 3.04649971,11.9774465 2.87888681,11.8098336 C2.71127392,11.6422207 2.63236262,11.4054715 2.66589432,11.1708148 C2.66589432,10.9814966 2.94987159,10.6975193 3.51790568,10.5081136 L11.7541693,7.19471136 C18.9490557,4.35460455 19.3277398,4.25994545 30.7827466,4.25994545 C39.8710216,4.25994545 44.8884625,4.82797955 49.1486227,6.34269205 C58.8049398,9.94015909 63.6330545,17.0403466 63.6330545,28.022058 C63.6330545,41.0864364 56.2488102,52.352125 42.9004466,59.9256875 C33.3387966,65.3218443 21.0318102,67.972633 5.69531932,67.972633 C0.867125,67.972633 0.0151056818,67.8778943 0.0151056818,67.499258 C0.0512042921,66.8918768 0.146314114,66.2894489 0.299090909,65.7004886 L10.8074193,12.0228261 L3.51790568,12.0228261 Z M22.4518239,60.020275 C25.8598852,60.020275 26.4279273,60.020275 36.4628807,59.5470511 C43.3737898,53.0147784 47.5392511,42.9797852 47.5392511,33.0394909 C47.5392511,24.3299318 43.847125,17.8923659 36.9362557,14.3896375 C33.8121716,12.7802659 30.4040307,12.1175648 25.4812489,12.0228261 L16.108917,60.020275 L22.4518239,60.020275 Z" id="Shape"></path>
            <path d="M85.1221,54.6241182 C83.9861034,60.020275 83.7021261,60.5883886 80.4833034,62.5764761 L70.2590239,68.8246523 C69.8234172,69.1785926 69.2998951,69.4076357 68.7443114,69.4873455 C68.5522255,69.485194 68.3701473,69.4013351 68.2436564,69.2567611 C68.1171655,69.112187 68.0582354,68.9205831 68.0816182,68.7299136 C68.0664302,68.5048224 68.0986791,68.2790503 68.1762773,68.0672125 L73.7618239,39.287667 C74.2351193,36.8261966 74.7085023,33.5128739 74.7085023,32.9447602 C74.7085023,31.5247784 74.0458091,30.7674261 72.909733,30.7674261 C71.3003614,30.7674261 69.974967,31.2408011 66.1882614,33.3235477 C65.9214516,33.4636671 65.6336872,33.5595975 65.3361705,33.6076045 C65.0521932,33.6076045 64.6735568,33.1342295 64.6735568,32.7555932 C64.6735568,32.5661159 64.6735568,32.4715364 65.6202352,31.9035739 L76.507208,24.9926648 C81.0513455,22.0578989 84.3648273,20.7325045 86.8262182,20.7325045 C89.19295,20.7325045 90.3289466,21.8685807 90.3289466,24.2353125 C90.3124027,25.0629147 90.2173169,25.8870767 90.0449693,26.6967034 L89.0036318,31.9981932 C88.2462795,35.2169443 87.7729045,37.2050318 87.5835784,37.867733 C92.6010193,30.7674659 93.7370955,29.2527534 95.6304443,27.0753398 C99.7959455,22.4365432 103.488072,20.6378455 108.789569,20.6378455 C111.345611,20.6378455 112.671006,21.2058875 112.671006,22.247225 C112.627775,22.7219298 112.464911,23.1779283 112.197631,23.5726114 L105.760136,33.7022318 C104.529409,35.785058 104.340083,35.8796375 103.67739,35.8796375 C103.109356,35.8796375 102.82537,35.5955807 102.730711,34.7435693 C102.636052,34.0810273 100.269249,33.418175 98.0919148,33.418175 C94.1157318,33.418175 92.6010193,34.364925 88.0568818,39.6664705 L85.1221,54.6241182 Z" id="Shape"></path>
            <path d="M127.627651,49.9853932 C127.147649,52.039863 126.8311,54.1291193 126.680973,56.2335693 C126.680973,57.7482818 127.343674,58.5055625 128.574401,58.5055625 C130.27844,58.5055625 131.035792,58.2216568 135.579969,55.9495125 C135.815791,55.8153592 136.071432,55.7195292 136.33733,55.6656068 C136.758401,55.7367734 137.073376,56.0911153 137.09469,56.5176261 C137.09469,56.7069443 136.905372,56.8962625 136.053352,57.3696375 L124.692925,64.2805466 C119.391507,67.4992977 116.5514,68.6353659 114.184668,68.6353659 C111.817936,68.6353659 110.587209,67.3099795 110.587209,64.7539295 C110.587209,62.8604216 110.681868,62.4817773 112.101922,55.7602341 L115.79404,39.2877068 C116.282258,37.2027994 116.598876,35.081404 116.740718,32.9448 C116.740718,31.5248182 116.078025,30.7674659 114.847369,30.7674659 C113.237918,30.7674659 112.007263,31.2408409 107.841761,33.3235875 C107.368466,33.5129057 107.273807,33.6076443 107.084401,33.6076443 C106.66336,33.5364306 106.348413,33.182119 106.327049,32.755633 C106.327049,32.5661557 106.611106,32.3768375 107.273799,31.9036136 L118.539408,24.9927045 C123.462269,21.9632795 126.681013,20.6378852 128.953085,20.6378852 C131.414476,20.6378852 132.550544,21.8686205 132.550544,24.3300114 C132.371678,27.4232131 131.92826,30.495417 131.22515,33.5129534 L127.627651,49.9853932 Z M128.385003,0.662557955 L129.142364,0.283842045 C129.52108,0.189182955 129.710424,0.0945238636 129.710398,-0.000135227273 L129.805057,-0.000135227273 C130.198019,0.0818779929 130.540181,0.321397905 130.751735,0.662557955 L130.562417,1.89321364 C130.981362,2.72731499 131.523945,3.49332016 132.171789,4.16528636 C133.118547,5.11195682 135.295873,5.77465795 137.189309,5.77465795 C138.968997,5.70662099 140.712918,5.25448763 142.301481,4.44926364 C142.456633,4.29780633 142.655178,4.19853414 142.869435,4.16528636 C143.233705,4.32576067 143.510163,4.6367397 143.626867,5.01729773 C143.626867,5.20669545 143.248151,5.49068068 142.585458,5.86931705 L131.698477,11.6441898 C128.953037,13.1589023 126.870283,13.8216034 125.071593,13.8216034 C121.379467,13.8216034 117.214045,10.7921705 117.214045,8.04673068 C117.214045,7.38402955 117.498023,7.10005227 118.823417,6.24803295 L128.385003,0.662557955 Z" id="Shape"></path>
            <path d="M160.099323,48.7547375 C160.099323,50.5533557 160.004664,52.9200875 159.815345,54.908175 C160.192566,53.9163969 160.668269,52.9649366 161.235319,52.0680682 C161.519376,51.5946932 162.560714,49.8906545 164.548801,47.0505557 C170.796977,37.3943182 173.353027,32.6608545 173.353027,30.8620852 C173.353027,30.0100659 173.258368,30.0100659 172.122372,29.9154068 C171.704541,29.8623407 171.408265,29.4814253 171.45967,29.0633875 C171.45967,28.4953534 171.648989,28.3060352 173.163709,27.4540159 L181.399965,22.8152273 C185.660125,20.7324727 185.660125,20.7324727 186.512144,20.7324727 C186.880184,20.7043827 187.243166,20.8317134 187.513005,21.0835649 C187.782843,21.3354163 187.934872,21.688767 187.932198,22.057867 C187.932198,23.1938636 185.94411,26.7913307 181.305266,33.7967795 C169.471591,51.7841625 164.454142,58.3162443 159.152644,62.8603818 C155.176469,66.1738636 150.537665,68.9192318 148.833634,68.9192318 C147.50824,68.9192318 147.413581,68.6353261 146.845547,63.4284955 L144.95219,35.1221659 C144.668213,30.672767 144.384156,29.9154068 142.964102,29.9154068 C142.017424,29.9154068 141.354731,30.1993841 138.704022,31.7140966 C138.336238,31.9655789 137.914798,32.1276793 137.473286,32.1874795 C137.189309,32.1874795 136.810593,31.7140966 136.810593,31.3354602 C136.810593,31.051483 136.999911,30.8620852 137.567945,30.578108 L147.129603,24.8032352 C152.336434,21.6791432 154.419149,20.7324648 156.028481,20.7324648 C158.773928,20.7324648 159.34197,22.1525182 159.625948,30.7674261 L160.099323,47.6186693 L160.099323,48.7547375 Z" id="Shape"></path>
            <path d="M195.316522,49.5120182 C195.316522,56.3281489 198.251288,60.49365 203.174061,60.49365 C205.635532,60.49365 207.812866,59.7363773 212.073026,57.3696375 C212.334239,57.2168496 212.624398,57.1201119 212.925037,57.0855807 C213.413558,57.1285381 213.785654,57.542008 213.777057,58.0323386 C213.777057,58.3162443 212.830378,58.9789295 209.800953,60.8724455 C200.239295,66.5525 195.032544,68.6352864 190.39366,68.6352864 C183.861515,68.6352864 180.453366,64.1857364 180.453366,55.5708284 C180.453366,44.9678409 185.18683,36.1636148 195.032536,28.4953136 C201.470031,23.4778727 207.907525,20.732425 213.209094,20.732425 C217.942558,20.732425 220.593299,23.0991568 220.593299,27.3593568 C220.593299,33.228817 215.954502,38.5303864 207.52892,42.1277659 C205.256848,43.1691034 202.890116,43.9265352 195.600531,45.9146227 C195.422725,47.1057371 195.327827,48.3077588 195.316522,49.5120182 Z M203.836762,41.2757545 C207.055506,38.3410682 208.475559,35.5009614 208.475559,32.4715364 C208.475559,29.6314295 206.771528,27.7380011 204.120819,27.7380011 C203.380238,27.7554409 202.646384,27.8830796 201.943406,28.116717 C199.197966,31.9035739 197.683245,35.5955807 196.357859,41.2757545 L203.836762,41.2757545 Z" id="Shape"></path>
            <path d="M226.936405,12.0228261 C226.701748,12.0563578 226.464999,11.9774465 226.297386,11.8098336 C226.129773,11.6422207 226.050861,11.4054715 226.084393,11.1708148 C226.084393,10.9814966 226.36837,10.6975193 226.936405,10.5081136 L235.172668,7.19471136 C242.367515,4.35460455 242.746231,4.25994545 254.201245,4.25994545 C263.28952,4.25994545 268.306961,4.82797955 272.567122,6.34269205 C282.223439,9.94015909 287.051553,17.0403466 287.051553,28.022058 C287.051553,41.0864364 279.667309,52.352125 266.318945,59.9256875 C256.757295,65.3218443 244.450309,67.972633 229.113818,67.972633 C224.285624,67.972633 223.433605,67.8778943 223.433605,67.499258 C223.469698,66.8918713 223.564832,66.2894406 223.717661,65.7004886 L234.225918,12.0228261 L226.936405,12.0228261 Z M245.870323,60.020275 C249.278384,60.020275 249.846426,60.020275 259.88138,59.5470511 C266.792289,53.0147784 270.95775,42.9797852 270.95775,33.0394909 C270.95775,24.3299318 267.265624,17.8923659 260.354755,14.3896375 C257.23067,12.7802659 253.82253,12.1175648 248.899748,12.0228261 L239.527408,60.020275 L245.870323,60.020275 Z" id="Shape"></path>
            <path d="M308.54067,54.6241182 C307.404602,60.020275 307.120617,60.5883886 303.901794,62.5764761 L293.677523,68.8246523 C293.241916,69.1785926 292.718394,69.4076357 292.16281,69.4873455 C291.970724,69.4851938 291.788645,69.4013351 291.662153,69.2567614 C291.535661,69.1121877 291.476729,68.9205839 291.500109,68.7299136 C291.484918,68.5048223 291.517167,68.2790495 291.594768,68.0672125 L297.180243,39.287667 C297.653618,36.8261966 298.126993,33.5128739 298.126993,32.9447602 C298.126993,31.5247784 297.4643,30.7674261 296.328224,30.7674261 C294.718852,30.7674261 293.393538,31.2408011 289.606633,33.3235477 C289.339854,33.4636723 289.052114,33.5596032 288.754622,33.6076045 C288.470644,33.6076045 288.09192,33.1342295 288.09192,32.7555932 C288.09192,32.5661159 288.09192,32.4715364 289.038678,31.9035739 L299.925643,24.9926648 C304.469789,22.0578989 307.783191,20.7325045 310.244661,20.7325045 C312.611385,20.7325045 313.747382,21.8685807 313.747382,24.2353125 C313.730838,25.0629148 313.635753,25.8870768 313.463405,26.6967034 L312.422067,31.9981932 C311.664715,35.2169443 311.191332,37.2050318 311.002014,37.867733 C316.019455,30.7674659 317.155531,29.2527534 319.04888,27.0753398 C323.214381,22.4365432 326.906507,20.6378455 332.207997,20.6378455 C334.764047,20.6378455 336.089441,21.2058875 336.089441,22.247225 C336.046211,22.7219298 335.883346,23.1779283 335.616066,23.5726114 L329.178572,33.7022318 C327.947836,35.785058 327.758518,35.8796375 327.095825,35.8796375 C326.527791,35.8796375 326.243806,35.5955807 326.149147,34.7435693 C326.054487,34.0810273 323.687756,33.418175 321.51035,33.418175 C317.534167,33.418175 316.019455,34.364925 311.475317,39.6664705 L308.54067,54.6241182 Z" id="Shape"></path>
            <path d="M351.04615,49.9853932 C350.566148,52.039863 350.249599,54.1291193 350.099472,56.2335693 C350.099472,57.7482818 350.762165,58.5055625 351.9929,58.5055625 C353.696939,58.5055625 354.454291,58.2216568 358.998468,55.9495125 C359.23429,55.8153592 359.489931,55.7195292 359.755828,55.6656068 C360.176898,55.736774 360.49187,56.0911166 360.513181,56.5176261 C360.513181,56.7069443 360.323862,56.8962625 359.471772,57.3696375 L348.111495,64.2805466 C342.809926,67.4992977 339.969899,68.6353659 337.603167,68.6353659 C335.236435,68.6353659 334.0057,67.3099795 334.0057,64.7539295 C334.0057,62.8604216 334.100359,62.4817773 335.52042,55.7602341 L339.212539,39.2877068 C339.700717,37.2027917 340.017334,35.0813996 340.159217,32.9448 C340.159217,31.5248182 339.496516,30.7674659 338.265789,30.7674659 C336.656417,30.7674659 335.425753,31.2408409 331.26022,33.3235875 C330.786925,33.5129057 330.692178,33.6076443 330.50286,33.6076443 C330.081819,33.5364306 329.766872,33.182119 329.745508,32.755633 C329.745508,32.5661557 330.029565,32.3768375 330.692178,31.9036136 L341.957867,24.9927045 C346.880728,21.9632795 350.099472,20.6378852 352.371544,20.6378852 C354.832935,20.6378852 355.969003,21.8686205 355.969003,24.3300114 C355.790137,27.4232131 355.346719,30.495417 354.643609,33.5129534 L351.04615,49.9853932 Z M351.803502,0.662557955 L352.560862,0.283842045 C352.939578,0.189182955 353.128923,0.0945238636 353.128897,-0.000135227273 L353.223556,-0.000135227273 C353.616532,0.0818921185 353.958714,0.321405745 354.170314,0.662557955 L353.980916,1.89318182 C354.399864,2.72728141 354.942446,3.49328616 355.590288,4.16525455 C356.537037,5.111925 358.714451,5.77462614 360.607808,5.77462614 C362.387496,5.70658917 364.131417,5.25445582 365.71998,4.44923182 C365.875151,4.29775633 366.073727,4.19848246 366.288014,4.16525455 C366.652223,4.32576505 366.928619,4.63673893 367.045286,5.01726591 C367.045286,5.20666364 366.66665,5.49064886 366.003949,5.86928523 L355.116984,11.644158 C352.371536,13.1588705 350.288782,13.8215716 348.490052,13.8215716 C344.797926,13.8215716 340.632505,10.7921386 340.632505,8.04669886 C340.632505,7.38399773 340.916482,7.10002045 342.241876,6.24800114 L351.803502,0.662557955 Z" id="Shape"></path>
            <path d="M383.517822,48.7547375 C383.517822,50.5533557 383.423083,52.9200875 383.233765,54.908175 C383.611041,53.916393 384.086798,52.964933 384.653898,52.0680682 C384.937795,51.5946932 385.979284,49.8906545 387.96722,47.0505557 C394.215516,37.3943102 396.771598,32.6608545 396.771598,30.8620852 C396.771598,30.0100659 396.676859,30.0100659 395.540791,29.9154068 C395.122975,29.8623161 394.826712,29.4814178 394.87809,29.0633875 C394.87809,28.4953534 395.067567,28.3060352 396.58228,27.4540159 L404.818416,22.8152193 C409.078648,20.7324648 409.078648,20.7324648 409.930667,20.7324648 C410.298693,20.7043981 410.661654,20.8317394 410.931475,21.0835882 C411.201295,21.3354369 411.353314,21.688774 411.350641,22.0578591 C411.350641,23.1938557 409.362705,26.7913227 404.723828,33.7967716 C392.890177,51.7841625 387.872665,58.3162443 382.571095,62.8603818 C378.594992,66.1738636 373.956188,68.9192318 372.252157,68.9192318 C370.926763,68.9192318 370.832103,68.6353261 370.264069,63.4284955 L368.370713,35.1221659 C368.086656,30.672767 367.802678,29.9154068 366.382625,29.9154068 C365.435947,29.9154068 364.773253,30.1993841 362.122544,31.7140966 C361.754761,31.9655789 361.33332,32.1276793 360.891809,32.1874795 C360.607832,32.1874795 360.229108,31.7140966 360.229108,31.3354602 C360.229108,31.051483 360.418426,30.8620852 360.986468,30.578108 L370.548126,24.8032352 C375.754957,21.6791432 377.837672,20.7324648 379.447083,20.7324648 C382.192451,20.7324648 382.760414,22.1525182 383.04447,30.7674261 L383.517845,47.6186693 L383.517822,48.7547375 Z" id="Shape"></path>
            <path d="M418.73502,49.5120182 C418.73502,56.3281489 421.669858,60.49365 426.59264,60.49365 C429.05411,60.49365 431.231516,59.7363773 435.491597,57.3696375 C435.752813,57.2168503 436.042974,57.1201127 436.343616,57.0855807 C436.832135,57.1285419 437.204228,57.5420095 437.195635,58.0323386 C437.195635,58.3162443 436.248877,58.9789295 433.219452,60.8724455 C423.657953,66.5525 418.451115,68.6352864 413.812239,68.6352864 C407.279966,68.6352864 403.871944,64.1857364 403.871944,55.5708284 C403.871944,44.9678409 408.6054,36.1636148 418.451115,28.4953136 C424.888609,23.4778727 431.326095,20.732425 436.627673,20.732425 C441.361128,20.732425 444.011917,23.0991568 444.011917,27.3593568 C444.011917,33.228817 439.373041,38.5303864 430.947459,42.1277659 C428.675466,43.1691034 426.308583,43.9265352 419.019077,45.9146227 C418.841255,47.105736 418.746341,48.3077577 418.73502,49.5120182 Z M427.255341,41.2757545 C430.474092,38.3410682 431.894217,35.5009614 431.894217,32.4715364 C431.894217,29.6314295 430.190035,27.7380011 427.539398,27.7380011 C426.798819,27.7554417 426.064968,27.8830804 425.361992,28.116717 C422.616624,31.9035739 421.101752,35.5955807 419.776517,41.2757545 L427.255341,41.2757545 Z" id="Shape"></path>
        </g>
    </g>
</svg>