<?xml version="1.0" encoding="UTF-8"?>
<svg width="290px" height="30px" viewBox="0 0 290 30" version="1.1" xmlns="http://www.w3.org/2000/svg" xmlns:xlink="http://www.w3.org/1999/xlink">
    <!-- Generator: Sketch 49.2 (51160) - http://www.bohemiancoding.com/sketch -->
    <title>Testdrive</title>
    <desc>Created with Sketch.</desc>
    <defs></defs>
    <g id="Playground" stroke="none" stroke-width="1" fill="none" fill-rule="evenodd">
        <g id="Home-1280-02" transform="translate(-868.000000, -926.000000)" fill="#00D733" fill-rule="nonzero">
            <g id="Testdrive" transform="translate(868.000000, 926.000000)">
                <path d="M38,0.0373860486 L36.0387831,7.40990622 L31.4136893,7.40990622 L25.4566359,29.9761352 C24.2967483,30.025878 22.8537104,29.9978594 21.1275221,29.8920794 C19.7213747,29.8077365 18.3153172,29.7234918 16.9093495,29.6393451 L0,29.0031581 L22.2374294,28.06761 L0.481132438,27.1508232 L22.7555257,26.2337924 L0.961988233,25.2796483 L23.2366581,24.3252314 L1.48008448,23.3896404 L23.7544848,22.4540923 L1.96121692,21.5184726 L24.2356173,20.5828815 L2.44207271,19.6472976 L24.7167497,18.7117137 L2.96017605,17.7696585 L25.2345693,16.8281915 L3.44130849,15.8861219 L25.7157017,14.9443465 L3.95912809,14.0028939 L26.2335213,13.06081 L4.44026053,12.1187547 L26.7146538,11.1772663 L4.95808013,10.2352182 L27.1957862,9.29316295 L5.43923385,8.35195429 L27.7136342,7.40990622 L5.92034501,6.48359889 L19.5365817,6.0759611 L19.8326043,5.14993357 L6.43816461,4.63125685 L20.0174375,4.22362624 L20.3134246,3.14944636 L6.91929705,2.77864219 L20.5355408,2.18574581 L20.8315563,1.11156593 L7.40016703,0.926307331 L21.2384774,0 L38,0.0373860486 Z" id="Shape"></path>
                <path d="M67,0.0224518023 L65.0804008,7.1653593 L58.1170822,7.1653593 L56.9501562,11.4661094 L63.2359989,11.4661094 L61.3163997,18.5716498 L55.0305931,18.5716498 L53.8636526,22.9094588 L60.8269713,22.9094588 L58.9828869,29.9776393 C56.3979779,30.0523639 51.6678296,29.9398038 44.792442,29.6399589 L30,29.002546 L52.6215221,28.0650707 L30.4894429,27.1273087 L53.110965,26.1901274 L31.0162066,25.2521288 L53.6380174,24.3143668 L31.5056495,23.3769274 L53.8636526,22.4391654 L31.9950924,21.5393512 L54.390705,20.6013239 L32.5218561,19.6641498 L54.8798593,18.7263877 L33.0112701,17.7889698 L55.6327995,16.8512078 L33.5380339,15.9162921 L56.1598518,14.981362 L34.0274767,14.0464319 L56.6490349,13.1114946 L34.5169485,12.1577448 L56.8749588,11.2042673 L35.0437194,10.2878774 L57.402004,9.37176708 L35.5331623,8.43683699 L57.8911655,7.50190689 L36.0599261,6.56696963 L58.6817368,5.63203953 L36.5493689,4.69710944 L59.1708983,3.76221519 L37.0388118,2.82724208 L59.6603411,1.89231199 L37.5655756,0.957417743 L52.6215221,0.358999392 C59.6473284,0.0598141148 64.4401544,-0.0523684152 67,0.0224518023 Z" id="Shape"></path>
                <path d="M102,1.55262029 L99.9205996,9.4427186 C99.2394338,9.08580628 98.5820841,8.68416437 97.9527652,8.24036817 C97.2698565,7.7525439 96.4489759,7.50206889 95.6133952,7.52655701 C94.713431,7.45953837 93.8626372,7.94936538 93.459793,8.76644916 C93.4341687,8.9279931 93.421762,9.0914012 93.4226992,9.25501004 C93.4226992,9.8813055 93.8435081,10.6452395 94.6851258,11.546812 C95.9969157,12.9498387 96.7767033,13.8264819 97.0244886,14.1767416 C97.8153759,15.2890682 98.2082042,16.6408306 98.1382482,18.0093024 C97.9765223,21.2967935 96.4781335,24.3701672 93.9984391,26.5005436 C91.6805672,28.8294531 88.5190722,30.0927466 85.2540563,29.9946888 L58,29.0929242 L80.7610557,28.5668216 L80.9468448,27.7028796 L58.4825606,27.2143187 L81.2067503,26.6882377 L81.4667127,25.8242957 L59.002457,25.3357348 L81.7263904,24.8096322 L81.9492519,23.9456902 L59.4850104,23.4571294 L82.2092499,22.931034 L82.4321115,22.067092 L60.0049282,21.5785311 L82.7662686,21.0524285 L82.9517516,20.1884865 L60.4877521,19.6999256 L83.2116856,19.098754 C83.8551851,20.7772499 84.6473397,21.8794026 85.5881493,22.4052123 C86.0643916,22.6759048 86.6013991,22.8181914 87.147632,22.818416 C87.8705915,22.8341151 88.5752407,22.587531 89.1341592,22.1232533 C89.6567704,21.7296916 89.9661648,21.1104463 89.9695412,20.4512569 C89.948849,19.7966455 89.6988147,19.1708035 89.2641119,18.6855503 L60.9702985,17.8213274 L90.7494569,16.882021 L61.4902162,15.9427219 L91.2690971,15.0034228 L61.9730402,14.0641236 L91.751921,13.1248173 L62.4926874,12.1855542 L92.2715611,11.246255 L62.9755114,10.2693782 L92.7543851,9.33007906 L63.458072,8.42831443 L93.2372233,7.4890153 L63.9779755,6.54970896 L93.7568563,5.57287532 L64.4608137,4.63356899 L94.2396803,3.69426985 L64.9804538,2.79250523 L94.7593204,1.8532061 L65.4632635,0.91394298 L95.3907899,0.0121423426 C98.2369798,-0.0874886961 100.44005,0.426003954 102,1.55262029 Z" id="Shape"></path>
                <path d="M133,0.0373860486 L131.038783,7.40990622 L126.413689,7.40990622 L120.456636,29.9761352 C119.296748,30.025878 117.853722,29.9978594 116.127558,29.8920794 C114.721405,29.8077365 113.315348,29.7234918 111.909385,29.6393451 L95,29.0031581 L117.237429,28.06761 L95.4811324,27.1508591 L117.755533,26.2338283 L95.9620095,25.2796483 L118.236686,24.3252314 L96.4801058,23.3896404 L118.754506,22.4540923 L96.9612382,21.5185085 L119.235639,20.5829174 L97.442094,19.6473335 L119.716771,18.7117496 L97.9601973,17.7696944 L120.234569,16.8281915 L98.4413085,15.8861435 L120.715702,14.944368 L98.9591281,14.0028939 L121.233521,13.0608458 L99.4402605,12.1187906 L121.714668,11.1772663 L99.9580943,10.2352182 L122.1958,9.29316295 L100.439227,8.35195429 L122.713627,7.40990622 L100.920345,6.48359889 L114.536589,6.0759611 L114.832604,5.14993357 L101.438172,4.63125685 L115.017437,4.22362624 L115.31346,3.14944636 L101.919304,2.77864219 L115.535541,2.18574581 L115.831556,1.11156593 L102.400167,0.926307331 L116.238477,0 L133,0.0373860486 Z" id="Shape"></path>
                <path d="M163.982161,14.5827616 L163.906828,14.9209034 C162.775705,19.4296235 160.878133,23.0116131 158.214113,25.666872 C155.287787,28.5879281 151.268268,30.1548903 147.129968,29.9878949 C144.164247,29.9379524 140.46964,29.8127241 136.046149,29.6122098 C132.351434,29.4118157 128.669385,29.2239287 125,29.048549 L147.620197,28.1092103 L125.489947,27.150394 L148.148096,26.23054 L126.017839,25.3098217 L148.638044,24.3893987 L126.508061,23.4500528 L149.165928,22.5107501 L126.998008,21.5714114 L149.655875,20.6320655 L127.525893,19.6927267 L150.14609,18.753388 L128.015833,17.8140493 L150.673982,16.8747034 L128.506062,15.9353647 L151.163987,14.9584467 L149.090639,22.5857935 C150.674037,22.56124 152.094031,21.6117375 153.350619,19.737286 C154.311798,18.2587391 155.036757,16.6403931 155.499582,14.9401 L155.612584,14.5655315 C155.87925,13.5880188 156.01868,12.5803871 156.027444,11.5674271 C156.027444,9.01896343 155.059731,7.74458755 153.124303,7.74429942 L151.163987,14.9584467 L129.034004,14.0566512 L151.654216,13.1172981 L129.523966,12.2155027 L152.181833,11.2386207 L130.05185,10.3368181 L152.672055,9.39747937 L130.542072,8.45814066 L153.162262,7.51879474 L131.032034,6.57945603 L153.689872,5.64011731 L131.55989,4.7007714 L154.180094,3.76143268 L132.049873,2.82209397 L154.70774,1.88275526 L132.540102,0.943409339 C137.591921,0.668216699 145.119433,0.3551158 155.122637,0.00410664217 C161.707165,-0.120932027 164.999619,2.60940386 165,8.19511429 C164.944651,10.3597306 164.602406,12.5075546 163.982161,14.5827616 Z" id="Shape"></path>
                <path d="M197.50791,3.6607724 C197.855041,4.46575413 198.022153,5.33635604 197.997646,6.21213655 C197.974445,7.73785515 197.687703,9.24820082 197.149987,10.6769735 C196.674196,12.09123 195.954105,13.4118282 195.022176,14.5792371 C193.908323,15.951265 192.415781,16.9685665 190.728566,17.5057173 L193.402735,29.9999928 L184.627372,29.9999928 L183.87424,21.8206085 C183.773518,20.995056 183.6479,19.6318253 183.497386,17.7309163 L184.5521,13.9413745 C185.894933,14.0370401 187.200836,13.4774488 188.05465,12.4405005 C188.929813,11.5452693 189.428302,10.3505822 189.448031,9.1011051 C189.508453,8.22159458 189.091848,7.37711115 188.355988,6.88746761 C187.790769,6.62026285 187.173733,6.47942813 186.548121,6.47483283 L180.183256,30 L158,29.0814514 L180.672711,28.1989685 L158.489736,27.2234727 L181.162447,26.322957 L159.016815,25.3849441 L181.689807,24.4469743 L159.506551,23.4714785 L182.179262,22.5709627 L160.033919,21.595467 L182.668998,20.694944 L160.523374,19.7194483 L183.196077,18.8189253 L161.01311,17.8434367 L183.685813,16.9054238 L161.540189,15.967418 L184.213181,15.0294123 L162.029932,14.0913202 L184.702628,13.1533072 L162.557286,12.2153374 L185.192364,11.2773317 L163.04674,10.3393259 L185.719451,9.40131297 L163.536476,8.50079723 L186.209187,7.52530146 L164.063563,6.62474256 L186.736548,5.64924678 L164.553299,4.74872385 L187.226002,3.77323526 L165.08066,2.87271233 L187.753363,1.89721655 L165.570114,0.959246758 L188.167561,0.0212050339 C190.013633,-0.0744685587 191.862209,0.154120264 193.62878,0.696521706 C195.611778,1.34732217 196.904821,2.33540573 197.50791,3.6607724 Z" id="Shape"></path>
                <path d="M225,0 L216.933445,30 C213.289503,30 208.954662,29.8979627 203.928922,29.6938882 C199.606539,29.4901967 195.296898,29.299068 191,29.1205022 L213.691867,28.1647583 L191.490144,27.2284081 L214.181729,26.2921152 L192.017944,25.3558224 L214.709551,24.4194362 L192.50782,23.4831003 L215.199406,22.5467716 L193.03562,21.6104787 L215.68955,20.6741428 L193.525483,19.73785 L216.217357,18.8015212 L194.015612,17.8651207 L216.707204,16.9287848 L194.543419,15.992456 L217.235004,15.0561273 L195.033274,14.1197986 L217.724867,13.1834627 L195.561081,12.2471339 L218.215018,11.3108052 L196.050943,10.3744764 L218.74281,9.43812617 L196.541087,8.50183333 L219.232673,7.5655405 L197.068887,6.62920458 L219.76048,5.69291175 L197.558749,4.75648967 L220.250335,3.82016093 L198.086549,2.88382501 L220.740478,1.94749628 L198.576411,1.01120344 C202.999028,0.78670378 207.409284,0.574472617 211.807182,0.374509954 C216.958082,0.12521002 221.355688,0.000373368309 225,0 Z" id="Shape"></path>
                <path d="M262,0 L245.847994,29.9528286 C244.244982,30.0275473 242.291703,30.0135011 239.988157,29.91069 C238.084916,29.7986071 236.16926,29.7004772 234.241189,29.6163003 L217,28.980608 L239.612589,28.0457873 L217.488157,27.1109237 L240.100998,26.1760314 L218.014097,25.2412108 L240.62668,24.3063184 L218.502535,23.3714548 L241.115117,22.4366342 L219.028216,21.5017777 L241.603274,20.5669141 L219.516654,19.650883 L242.129236,18.7345581 L220.004839,17.7962964 L242.617702,16.8572246 L220.530802,15.9189988 L243.143391,14.979927 L221.019239,14.0417012 L243.631828,13.1031886 L221.544928,12.1643964 L244.119978,11.225891 L222.033394,10.2868121 L244.645976,9.34857905 L222.521543,8.40950729 L245.134414,7.47128145 L223.047484,6.53279753 L245.660066,5.59400535 L223.535922,4.65547124 L246.148497,3.71667906 L224.061603,2.77816647 L246.63666,1.83994063 L224.550041,0.90086886 L247.275472,0 L244.908911,19.5946719 L253.24792,0 L262,0 Z" id="Shape"></path>
                <path d="M290,0.0224517915 L288.080399,7.16535588 L281.117068,7.16535588 L279.950192,11.4661039 L286.236047,11.4661039 L284.316446,18.571641 L278.030591,18.571641 L276.863671,22.9094622 L283.827003,22.9094622 L281.982895,29.9776393 C279.397979,30.0523639 274.667825,29.9398038 267.792432,29.6399591 L253,29.0025321 L275.621547,28.0650717 L253.489443,27.1273101 L276.11099,26.1901292 L254.016236,25.2521167 L276.638065,24.3143552 L254.50568,23.3768947 L276.8637,22.4391331 L254.995123,21.5393194 L277.390753,20.6012925 L255.521887,19.6641189 L277.879915,18.7263573 L256.011301,17.7889613 L278.632848,16.8511998 L256.538073,15.9162701 L279.159901,14.9813405 L257.027516,14.0464108 L279.649063,13.1114884 L257.516959,12.157739 L279.87498,11.204262 L258.043723,10.2878725 L280.402025,9.3717626 L258.533167,8.43683295 L280.891187,7.50190331 L259.059931,6.56696649 L281.681759,5.63203684 L259.549374,4.6971072 L282.170921,3.7622134 L260.038817,2.82727658 L282.660364,1.89234693 L260.565589,0.957453133 L275.621547,0.358999221 C282.647359,0.0598140862 287.440176,-0.0523683902 290,0.0224517915 Z" id="Shape"></path>
            </g>
        </g>
    </g>
</svg>
