<?xml version="1.0" encoding="UTF-8"?>
<svg width="338px" height="35px" viewBox="0 0 338 35" version="1.1" xmlns="http://www.w3.org/2000/svg" xmlns:xlink="http://www.w3.org/1999/xlink">
    <!-- Generator: Sketch 48.2 (47327) - http://www.bohemiancoding.com/sketch -->
    <title>Testdrive</title>
    <desc>Created with Sketch.</desc>
    <defs></defs>
    <g id="DDTD-Homepage-02" stroke="none" stroke-width="1" fill="none" fill-rule="evenodd" transform="translate(-1142.000000, -903.000000)">
        <g id="Testdrive" transform="translate(1142.000000, 903.000000)" fill="#00D733" fill-rule="nonzero">
            <path d="M44.6423167,0.0694833333 L42.3382833,8.63288333 L36.9047333,8.63288333 L29.9064,34.844225 C28.5437667,34.9020028 26.8484889,34.8694583 24.8205667,34.7465917 C23.1686278,34.648625 21.5167944,34.5507722 19.8650667,34.4530333 L0,33.7140833 L26.1244833,32.6274167 L0.565233333,31.5625417 L26.7331417,30.4973833 L1.13014167,29.3891167 L27.298375,28.2805333 L1.7388,27.1938167 L27.9067167,26.10715 L2.30403333,25.0204 L28.47195,23.9336833 L2.86894167,22.846975 L29.0371833,21.7602667 L3.47760833,20.6660417 L29.6455167,19.5725 L4.04284167,18.4782583 L30.21075,17.3843583 L4.651175,16.2908333 L30.8190833,15.196575 L5.21640833,14.10235 L31.3843167,13.0087833 L5.82474167,11.9145667 L31.94955,10.8203417 L6.39,9.7271 L32.5579167,8.63288333 L6.95520833,7.55695 L22.9515333,7.08346667 L23.2993,6.00785833 L7.56354167,5.4054 L23.5164417,4.931925 L23.8641667,3.68423333 L8.128775,3.25353333 L24.1251083,2.56486667 L24.4728667,1.317175 L8.6937,1.10199167 L24.9509167,0.0260583333 L44.6423167,0.0694833333 Z" id="Shape"></path>
            <path d="M77.5910667,0.0260583333 L75.3742167,8.32855833 L67.332625,8.32855833 L65.985,13.3275 L73.2442083,13.3275 L71.0273583,21.5865667 L63.7681917,21.5865667 L62.42055,26.6285833 L70.4621417,26.6285833 L68.3325,34.844225 C65.3473167,34.9310806 59.8847028,34.8002472 51.9446583,34.451725 L34.8616,33.7108333 L60.986075,32.6211667 L35.4268333,31.5311667 L61.5513083,30.4418417 L36.0351667,29.3515667 L62.159975,28.2615667 L36.6004,27.1719417 L62.42055,26.0819417 L37.1656333,25.03605 L63.0292167,23.9457417 L37.7739667,22.856425 L63.5941167,21.766425 L38.3391667,20.676825 L64.46365,19.586825 L38.9475,18.5001333 L65.0723167,17.413425 L39.5127333,16.3267167 L65.63725,15.24 L40.078,14.1314167 L65.8981583,13.02315 L40.6863417,11.9579917 L66.5068167,10.8931583 L41.251575,9.80645 L67.071725,8.71974167 L41.8599083,7.633025 L67.9847167,6.54631667 L42.4251417,5.45960833 L68.549625,4.37294167 L42.990375,3.28618333 L69.1148583,2.199475 L43.5987083,1.11280833 L60.986075,0.417241667 C69.0998306,0.0694861111 74.6348278,-0.0609083333 77.5910667,0.0260583333 Z" id="Shape"></path>
            <path d="M119.059783,1.85171667 L116.625467,10.98005 C115.828038,10.5671255 115.058491,10.1024518 114.321758,9.58900833 C113.522289,9.02462721 112.561299,8.73484383 111.5831,8.763175 C110.529528,8.68563876 109.533519,9.25233693 109.061917,10.19765 C109.031919,10.3845459 109.017394,10.5735985 109.018492,10.7628833 C109.018492,11.4874667 109.511125,12.3712889 110.496392,13.41435 C112.032081,15.0375611 112.944964,16.0517806 113.235042,16.4570083 C114.160919,17.7438983 114.620796,19.3077999 114.5389,20.8910333 C114.34957,24.6944478 112.595434,28.2501424 109.6925,30.71485 C106.979009,33.4092477 103.277904,34.8707966 99.4556083,34.75735 L67.549775,33.7140667 L94.1957333,33.1054 L94.4132333,32.105875 L68.1147,31.5406417 L94.7175,30.932 L95.0218333,29.932475 L68.7233333,29.3672417 L95.3258333,28.758575 L95.5867333,27.75905 L69.28825,27.1938167 L95.8911083,26.5851583 L96.1520083,25.5856333 L69.8969083,25.0204 L96.5432,24.4117333 L96.7603417,23.4122083 L70.4621417,22.846975 L97.0646417,22.1514583 C97.817975,24.0933694 98.7453361,25.3684889 99.846725,25.9768167 C100.404253,26.2899903 101.032918,26.4546067 101.672383,26.4548667 C102.518739,26.4730294 103.343659,26.1877477 103.997975,25.6506083 C104.609786,25.1952829 104.971989,24.4788561 104.975942,23.7162167 C104.951718,22.9588736 104.659007,22.2348149 104.150108,21.6734083 L71.02705,20.6735583 L105.888975,19.5868417 L71.6357083,18.5001333 L106.497308,17.413425 L72.2009417,16.3267167 L107.062542,15.24 L72.8092833,14.1533333 L107.670875,13.066625 L73.3745167,11.9364417 L108.236108,10.8497333 L73.9394417,9.80645 L108.801358,8.71974167 L74.5480833,7.633025 L109.409683,6.50289167 L75.1133333,5.416175 L109.974917,4.32946667 L75.7216667,3.28618333 L110.58325,2.199475 L76.2868833,1.11280833 L111.3225,0.0694833333 C114.654483,-0.0457833333 117.233578,0.548294444 119.059783,1.85171667 Z" id="Shape"></path>
            <path d="M154.87715,0.0694833333 L152.573117,8.63288333 L147.139567,8.63288333 L140.141233,34.844225 C138.7786,34.9020028 137.083336,34.8694583 135.055442,34.7465917 C133.403497,34.648625 131.751664,34.5507722 130.099942,34.4530333 L110.234833,33.7140833 L136.359317,32.6274167 L110.800067,31.5625833 L136.967983,30.497425 L111.365,29.3891167 L137.533242,28.2805333 L111.973658,27.1938167 L138.141575,26.10715 L112.538892,25.0204417 L138.706808,23.933725 L113.1038,22.8470167 L139.272042,21.7603083 L113.712467,20.6660833 L139.88035,19.5725 L114.277675,18.4782833 L140.445583,17.3843833 L114.886008,16.2908333 L141.053917,15.1966167 L115.451242,14.1023917 L141.619167,13.0087833 L116.059592,11.9145667 L142.1844,10.8203417 L116.624825,9.7271 L142.792742,8.63288333 L117.190042,7.55695 L133.186375,7.08346667 L133.534133,6.00785833 L117.798383,5.4054 L133.751275,4.931925 L134.099042,3.68423333 L118.363617,3.25353333 L134.359942,2.56486667 L134.7077,1.317175 L118.928533,1.10199167 L135.18575,0.0260583333 L154.87715,0.0694833333 Z" id="Shape"></path>
            <path d="M190.303658,16.935375 L190.2168,17.3265667 C188.912617,22.5426444 186.724719,26.6866 183.653108,29.7584333 C180.27906,33.1377638 175.64456,34.9505614 170.873108,34.7573667 C167.453636,34.6995889 163.193761,34.5547139 158.093483,34.3227417 C153.833483,34.0909083 149.588086,33.8735444 145.357292,33.67065 L171.438342,32.5839417 L145.9222,31.4747 L172.047008,30.4105333 L146.530858,29.3453667 L172.611917,28.2805417 L147.096083,27.193825 L173.220567,26.1071583 L147.660992,25.02045 L173.785475,23.9337333 L148.269642,22.847025 L174.350692,21.7603167 L148.834542,20.6736083 L174.95935,19.5868917 L149.399775,18.5001833 L175.524325,17.37 L173.133758,26.193975 C174.959414,26.1655694 176.596664,25.0671028 178.045508,22.898575 C179.153746,21.188064 179.989623,19.3158213 180.523258,17.348775 L180.65355,16.9154417 C180.961015,15.7845704 181.121778,14.6188549 181.131883,13.446975 C181.131883,10.4986917 180.016111,9.02438333 177.784567,9.02405 L175.524325,17.37 L150.008492,16.326725 L176.089558,15.24 L150.573417,14.196725 L176.6979,13.0665833 L151.182067,12.0233 L177.263125,10.9365917 L151.747292,9.84988333 L177.828333,8.76316667 L152.312217,7.67645833 L178.436667,6.58975 L152.920833,5.50303333 L179.001892,4.416325 L153.485783,3.32961667 L179.610267,2.24290833 L154.051017,1.15619167 C159.875756,0.837825 168.554964,0.475602778 180.088642,0.069525 C187.680592,-0.0751305556 191.476786,3.08355833 191.477225,9.54559167 C191.413408,12.0498072 191.0188,14.5345959 190.303658,16.935375 Z" id="Shape"></path>
            <path d="M230.0339,4.24260833 C230.434544,5.17520427 230.627418,6.18382319 230.599133,7.19844167 C230.572356,8.96603328 230.241409,10.7158149 229.6208,12.3710917 C229.071661,14.009551 228.240561,15.5395045 227.164967,16.8919833 C225.879404,18.4815195 224.156773,19.6600944 222.209458,20.2824 L225.295875,34.7574 L215.167708,34.7574 L214.298475,25.2813333 C214.182225,24.3249056 214.037242,22.7455611 213.863525,20.5433 L215.080833,16.153 C216.630676,16.2638315 218.137896,15.6155279 219.123333,14.4141917 C220.13341,13.377039 220.708747,11.9929574 220.731517,10.5454 C220.801253,9.5264602 220.320424,8.54810033 219.471125,7.98083333 C218.818773,7.67126845 218.106615,7.50810713 217.384558,7.50278333 L210.038492,34.7574083 L184.435483,33.6932417 L210.6034,32.6708583 L185.000717,31.5407167 L211.168633,30.4974417 L185.60905,29.410725 L211.777292,28.3240583 L186.174283,27.1939167 L212.3422,26.1506417 L186.78295,25.0205 L212.907433,23.9772167 L187.347858,22.847075 L213.515767,21.8037917 L187.913092,20.6736583 L214.081,19.5869417 L188.521425,18.5002333 L214.689667,17.413525 L189.086667,16.3267167 L215.254567,15.24 L189.695317,14.1533333 L215.8198,13.066625 L190.260225,11.9799167 L216.428142,10.8932 L190.825458,9.849925 L216.993375,8.71978333 L191.4338,7.67645833 L217.602033,6.54631667 L191.999033,5.50303333 L218.166942,4.3729 L192.607692,3.32961667 L218.7756,2.199475 L193.1726,1.11280833 L219.25365,0.0260583333 C221.384312,-0.0847824471 223.517862,0.180044689 225.556767,0.808433333 C227.845461,1.56240556 229.337839,2.70713056 230.0339,4.24260833 Z" id="Shape"></path>
            <path d="M262.200267,0.0260583333 L252.897925,34.844225 C248.695736,34.844225 243.696803,34.7258 237.901125,34.48895 C232.916558,34.2525444 227.946686,34.0307194 222.991508,33.823475 L249.159742,32.7142333 L223.556742,31.6275 L249.72465,30.5408333 L224.1654,29.4541667 L250.333333,28.3673917 L224.730325,27.280675 L250.898233,26.1939667 L225.338983,25.1073 L251.463467,24.0205833 L225.903892,22.9339167 L252.072133,21.8472083 L226.469108,20.7604167 L252.637025,19.6737 L227.077775,18.5869917 L253.245683,17.5002833 L227.642675,16.413575 L253.810592,15.3268583 L228.251342,14.24015 L254.375833,13.1534417 L228.81625,12.0667333 L254.984483,10.98 L229.381483,9.89333333 L255.549392,8.80666667 L229.990142,7.71995 L256.158058,6.63328333 L230.55505,5.54646667 L256.722958,4.45975833 L231.163708,3.37304167 L257.288192,2.28633333 L231.728617,1.19966667 C236.828772,0.939111111 241.914675,0.692794444 246.986325,0.460716667 C252.926336,0.171377778 257.99765,0.0264916667 262.200267,0.0260583333 Z" id="Shape"></path>
            <path d="M304.7988,0.0260583333 L286.10725,34.844225 C284.2522,34.9310806 281.991811,34.9147528 279.326083,34.7952417 C277.1236,34.6649528 274.90675,34.5508833 272.675533,34.4530333 L252.72355,33.7140833 L278.891467,32.6274167 L253.288458,31.5407 L279.456667,30.45395 L253.897092,29.3672833 L280.065,28.2805333 L254.462325,27.1938167 L280.630233,26.10715 L255.070658,25.0204417 L281.195142,23.933725 L255.635892,22.8689 L281.8038,21.8037333 L256.200833,20.7130667 L282.369067,19.6214583 L256.809492,18.5308333 L282.977408,17.439225 L257.374725,16.3486 L283.542642,15.2576417 L257.983067,14.1663583 L284.107542,13.0754083 L258.548333,11.9837917 L284.716242,10.8931583 L259.113233,9.80155 L285.281475,8.710925 L259.721867,7.62 L285.889775,6.52871667 L260.2871,5.43773333 L286.455,4.34645 L260.895433,3.25549167 L287.019917,2.16486667 L261.460667,1.07325833 L287.759167,0.0260583333 L285.020517,22.8035583 L294.67065,0.0260583333 L304.7988,0.0260583333 Z" id="Shape"></path>
            <path d="M337.051667,0.0260583333 L334.834817,8.32855833 L326.793217,8.32855833 L325.44565,13.3275 L332.704867,13.3275 L330.488017,21.5865667 L323.2288,21.5865667 L321.881183,26.6286 L329.922783,26.6286 L327.793117,34.8442417 C324.807928,34.9310972 319.345311,34.8002639 311.405267,34.4517417 L294.322233,33.7108333 L320.446717,32.6211833 L294.887467,31.5311833 L321.01195,30.4418583 L295.495833,29.3515667 L321.620642,28.2615667 L296.061067,27.1719167 L321.881217,26.0819167 L296.6263,25.036025 L322.489883,23.9457167 L297.234633,22.8564 L323.054792,21.7664 L297.799833,20.676825 L323.924317,19.586825 L298.408175,18.5001167 L324.532983,17.4134083 L298.973408,16.3267 L325.097892,15.24 L299.538642,14.1314167 L325.358792,13.02315 L300.146975,11.9579917 L325.96745,10.8931583 L300.712208,9.80645 L326.532358,8.71974167 L301.320542,7.633025 L327.44535,6.54631667 L301.885775,5.45960833 L328.010258,4.37294167 L302.451008,3.286225 L328.575492,2.19951667 L303.05935,1.11285 L320.446717,0.417241667 C328.560472,0.0694861111 334.095456,-0.0609083333 337.051667,0.0260583333 Z" id="Shape"></path>
        </g>
    </g>
</svg>